<svg xmlns="http://www.w3.org/2000/svg" viewBox="227 306 45.548 46.8">
  <defs>
    <style>
      .cls-1 {
        fill: #2699fb;
      }
    </style>
  </defs>
  <g id="Group_5" data-name="Group 5" transform="translate(227 306)">
    <path id="Path_1" data-name="Path 1" class="cls-1" d="M42.948,228a2.589,2.589,0,0,1,2.6,2.6v14.156a2.589,2.589,0,0,1-2.6,2.6H2.7a2.673,2.673,0,0,1-2.7-2.6V230.6A2.673,2.673,0,0,1,2.7,228a2.589,2.589,0,0,1,2.6,2.6v11.459H40.348V230.6a2.589,2.589,0,0,1,2.6-2.6Zm0,0" transform="translate(0 -200.556)"/>
    <path id="Path_2" data-name="Path 2" class="cls-1" d="M84.254,15.022a2.587,2.587,0,0,1-3.659-3.659L91.187.77a2.558,2.558,0,0,1,3.659,0l10.593,10.593a2.5,2.5,0,0,1,0,3.659,2.631,2.631,0,0,1-1.83.77,2.863,2.863,0,0,1-1.926-.77L95.617,8.956V31.489a2.6,2.6,0,1,1-5.2,0V8.956Zm0,0" transform="translate(-70.194)"/>
  </g>
</svg>
